<svg xmlns="http://www.w3.org/2000/svg" width="67.876" height="12" viewBox="0 0 67.876 12">
  <g id="_5_star" data-name="5 star" transform="translate(-133.235 -654.259)">
    <g id="Group_37" data-name="Group 37" transform="translate(133.235 654.26)">
      <g id="Group_36" data-name="Group 36">
        <path id="Path_56" data-name="Path 56" d="M145.766,658.76a.864.864,0,0,0-.7-.589l-3.3-.48-1.476-2.988a.9.9,0,0,0-1.549,0l-1.476,2.988-3.292.48a.864.864,0,0,0-.478,1.474l2.386,2.32-.562,3.284a.864.864,0,0,0,1.255.911l2.941-1.552,2.95,1.552a.869.869,0,0,0,.4.1.879.879,0,0,0,.51-.164.868.868,0,0,0,.344-.846l-.563-3.284,2.387-2.32A.862.862,0,0,0,145.766,658.76Z" transform="translate(-133.235 -654.26)" fill="#20d3c2"/>
      </g>
    </g>
    <g id="Group_39" data-name="Group 39" transform="translate(147.061 654.26)">
      <g id="Group_38" data-name="Group 38" transform="translate(0)">
        <path id="Path_57" data-name="Path 57" d="M168.809,658.76a.864.864,0,0,0-.7-.589l-3.3-.48-1.476-2.988a.9.9,0,0,0-1.549,0l-1.476,2.988-3.292.48a.864.864,0,0,0-.478,1.474l2.387,2.32-.562,3.284a.864.864,0,0,0,1.255.911l2.941-1.552,2.95,1.552a.867.867,0,0,0,.4.1.879.879,0,0,0,.51-.164.868.868,0,0,0,.344-.846l-.563-3.284,2.387-2.32A.862.862,0,0,0,168.809,658.76Z" transform="translate(-156.278 -654.26)" fill="#20d3c2"/>
      </g>
    </g>
    <g id="Group_41" data-name="Group 41" transform="translate(160.886 654.26)">
      <g id="Group_40" data-name="Group 40">
        <path id="Path_58" data-name="Path 58" d="M191.852,658.76a.864.864,0,0,0-.7-.589l-3.3-.48-1.476-2.988a.9.9,0,0,0-1.549,0l-1.476,2.988-3.292.48a.864.864,0,0,0-.478,1.474l2.387,2.32-.562,3.284a.864.864,0,0,0,1.255.911l2.941-1.552,2.95,1.552a.869.869,0,0,0,.4.1.879.879,0,0,0,.51-.164.868.868,0,0,0,.344-.846l-.563-3.284,2.387-2.32A.862.862,0,0,0,191.852,658.76Z" transform="translate(-179.321 -654.26)" fill="#20d3c2"/>
      </g>
    </g>
    <g id="Group_43" data-name="Group 43" transform="translate(174.712 654.259)">
      <g id="Group_42" data-name="Group 42">
        <path id="Path_59" data-name="Path 59" d="M214.9,658.758a.865.865,0,0,0-.7-.589l-3.3-.479-1.476-2.988a.9.9,0,0,0-1.549,0L206.4,657.69l-3.292.48a.864.864,0,0,0-.478,1.474l2.386,2.32-.562,3.284a.864.864,0,0,0,1.255.911l2.942-1.551,2.95,1.551a.862.862,0,0,0,.4.1.875.875,0,0,0,.51-.164.866.866,0,0,0,.344-.846l-.562-3.283,2.386-2.32A.863.863,0,0,0,214.9,658.758Z" transform="translate(-202.364 -654.259)" fill="#20d3c2"/>
      </g>
    </g>
    <g id="Group_45" data-name="Group 45" transform="translate(188.537 654.26)">
      <g id="Group_44" data-name="Group 44">
        <path id="Path_60" data-name="Path 60" d="M237.938,658.76a.864.864,0,0,0-.7-.589l-3.3-.479-1.476-2.988a.9.9,0,0,0-1.549,0l-1.476,2.988-3.292.479a.864.864,0,0,0-.478,1.474l2.387,2.32-.563,3.284a.864.864,0,0,0,1.255.911l2.942-1.552,2.95,1.552a.865.865,0,0,0,.4.1.879.879,0,0,0,.51-.164.867.867,0,0,0,.344-.846l-.562-3.284,2.387-2.32A.863.863,0,0,0,237.938,658.76Zm-4.139,2.284a.865.865,0,0,0-.25.766l.344,2.006-1.8-.948a.866.866,0,0,0-.8,0l-1.794.946.344-2a.865.865,0,0,0-.25-.766l-1.455-1.414,2.006-.292a.864.864,0,0,0,.65-.473l.9-1.826.9,1.826a.863.863,0,0,0,.65.473l2.014.293Z" transform="translate(-225.407 -654.261)" fill="#20d3c2"/>
      </g>
    </g>
  </g>
</svg>
